# xmcd CD database file
#
# Track frame offsets:
#	150
#	21846
#	41845
#	62248
#	83654
#	105277
#	125528
#	127416
#	148600
#	171265
#	190043
#	211208
#
# Disc length: 3085 seconds
#
# Revision: 0
# Processed by: cddbd v1.5.2PL0 Copyright (c) Steve Scherf et al.
# Submitted via: CDex 1.70beta2
#
DISCID=ab0c0b0c
DTITLE=La Nueva Combinacion - Transito
DYEAR=2005
DGENRE=Salsa
TTITLE0=Aprenderan el Idioma
TTITLE1=Son para ustedes
TTITLE2=Ah ah O no
TTITLE3=Si La Ves
TTITLE4=Lo Eres Todo
TTITLE5=Maria Novela
TTITLE6=Preludio
TTITLE7=Boricua Con Sabor Cubano
TTITLE8=Esta Cobardia
TTITLE9=Solo
TTITLE10=Si Usted Supiera Senora
TTITLE11=Dime si Llegue a Tiempo
EXTD=YEAR: 2005
EXTT0=
EXTT1=
EXTT2=
EXTT3=
EXTT4=
EXTT5=
EXTT6=
EXTT7=
EXTT8=
EXTT9=
EXTT10=
EXTT11=
PLAYORDER=
